# xmcd
#
# Track frame offsets: 
#        182
#        12832
#        24585
#        38615
#        50910
#        63067
#        72790
#        87087
#        98160
#        112782
#        125187
#        139035
#        150732
#        163065
#        173627
#        185880
#        196817
#        210457
#
# Disc length: 3020 seconds
#
# Revision: 0
# Processed by: cddbd v1.5.2PL0 Copyright (c) Steve Scherf et al.
# Submitted via: ExactAudioCopy v0.99pb3
#
DISCID=ee0bca12
DTITLE=Compilation Disc - Nuggets - Classics From The Psychedelic Sixt
DTITLE=ies
DYEAR=1972
DGENRE=Classic Rock
TTITLE0=Standells (The)_-_Dirty Water
TTITLE1=Seeds, (The)_-_Pushin' Too Hard
TTITLE2=Count Five (The)_-_Psychotic Reaction
TTITLE3=Chocolate Watch Band (The)_-_Let's Talk About Girls
TTITLE4=Easybeats (The)_-_Friday On My Mind
TTITLE5=Five Americans (The)_-_I See The Light
TTITLE6=Standells (The)_-_Why Pick On Me
TTITLE7=Syndicate Of Sound (The)_-_Little Girl
TTITLE8=Monkees (The)_-_Pleasant Valley Sunday
TTITLE9=Knickerbockers (The)_-_Lies
TTITLE10=Beau Brummels (The)_-_Laugh, Laugh
TTITLE11=Troggs (The)_-_Wild Thing
TTITLE12=Easybeats (The)_-_Heaven And Hell
TTITLE13=Monkees (The)_-_Valleri
TTITLE14=Nazz (The)_-_Open My Eyes
TTITLE15=Beau Brummels (The)_-_Just A Little
TTITLE16=Seeds (The)_-_Can't Seem To Make You Mine
TTITLE17=Amboy Dukes (The)_-_Journey To The Center Of The Mind
EXTD=
EXTT0=
EXTT1=
EXTT2=
EXTT3=
EXTT4=
EXTT5=
EXTT6=
EXTT7=
EXTT8=
EXTT9=
EXTT10=
EXTT11=
EXTT12=
EXTT13=
EXTT14=
EXTT15=
EXTT16=
EXTT17=
PLAYORDER=
